# xmcd CD database file
#
# Track frame offsets:
#	150
#	14847
#	27856
#	40800
#	54030
#	68167
#	78656
#	89590
#	102606
#	110082
#
# Disc length: 1599 seconds
#
# Revision: 0
# Processed by: cddbd v1.5PL3 Copyright (c) Steve Scherf et al.
# Submitted via: CDex 1.51
#
DISCID=85063d0a
DTITLE=John Mayall and The Bluesbreakers - A Hard Road
DYEAR=2003
DGENRE=Blues
TTITLE0=A Hard Road
TTITLE1=It's Over
TTITLE2=You Don't Love Me
TTITLE3=The Stumble
TTITLE4=Another Kind Of Love
TTITLE5=Hit The Highway
TTITLE6=Leaping Christine
TTITLE7=Dust My Blues
TTITLE8=There's Always Work
TTITLE9=The Same Way
EXTD=YEAR: 2003
EXTT0=
EXTT1=
EXTT2=
EXTT3=
EXTT4=
EXTT5=
EXTT6=
EXTT7=
EXTT8=
EXTT9=
PLAYORDER=
